<svg width="957" height="176" viewBox="0 0 957 176" fill="none" xmlns="http://www.w3.org/2000/svg">
<path d="M0.476562 87.5321H37.4766C41.3426 87.5321 44.4766 90.6661 44.4766 94.5321V131.532H7.47656C3.61057 131.532 0.476562 128.398 0.476562 124.532V87.5321Z" fill="#D12186"/>
<path fill-rule="evenodd" clip-rule="evenodd" d="M88.5088 8.06102e-06L7.00879 0C3.50879 0 0.0087923 3.00001 0.0087923 7.00001L0.00878906 44L87.6685 44V44.0007C111.732 44.1267 131.2 63.6728 131.2 87.766C131.2 111.859 111.732 131.405 87.6685 131.531V131.532H44.6684V169C44.6684 172.5 47.1684 176 51.6684 176H90.7745L90.7942 175.946C137.948 174.299 175.668 135.555 175.668 88.0001C175.668 39.6799 136.724 0.455807 88.5103 0.00401166L88.5088 8.06102e-06Z" fill="#2A4C9C"/>
<path d="M272.232 106.738C262.556 106.738 253.372 106.184 244.68 105.077V17.317C249.149 16.292 254.213 15.513 259.871 14.98C265.57 14.406 271.023 14.119 276.23 14.119C312.474 14.119 330.596 29.576 330.596 60.49C330.596 71.191 328.443 79.9445 324.138 86.7505C319.874 93.5565 313.437 98.5995 304.827 101.879C296.258 105.118 285.393 106.738 272.232 106.738ZM276.599 92.593C288.858 92.593 297.898 90.01 303.72 84.844C309.542 79.637 312.453 71.478 312.453 60.367C312.453 49.379 309.501 41.2815 303.597 36.0745C297.734 30.8265 288.796 28.2025 276.783 28.2025C272.355 28.2025 267.558 28.633 262.392 29.494V91.855C266.369 92.347 271.105 92.593 276.599 92.593ZM366.51 37.858C374.177 37.858 380.368 38.7395 385.083 40.5025C389.839 42.2655 393.365 45.197 395.661 49.297C397.998 53.397 399.166 58.9935 399.166 66.0865V106H384.714L383.545 99.235H382.684C380.224 101.777 377.149 103.745 373.459 105.139C369.769 106.492 365.813 107.169 361.59 107.169C356.465 107.169 352.098 106.369 348.49 104.77C344.923 103.171 342.217 100.936 340.372 98.0665C338.527 95.1965 337.605 91.855 337.605 88.042C337.605 81.892 339.962 77.136 344.677 73.774C349.392 70.371 356.854 68.3005 367.063 67.5625L382.192 66.148V64.795C382.192 61.146 381.557 58.317 380.286 56.308C379.015 54.258 377.047 52.8025 374.382 51.9415C371.758 51.0805 368.211 50.65 363.742 50.65C360.626 50.65 357.223 50.9165 353.533 51.4495C349.884 51.9415 346.42 52.7 343.14 53.725V41.1175C346.584 40.0515 350.376 39.252 354.517 38.719C358.699 38.145 362.697 37.858 366.51 37.858ZM366.694 95.545C369.523 95.545 372.27 95.0735 374.935 94.1305C377.6 93.1875 380.019 91.773 382.192 89.887V75.9265L368.478 77.1565C363.599 77.6485 360.114 78.6735 358.023 80.2315C355.932 81.7485 354.886 83.901 354.886 86.689C354.886 89.477 355.87 91.65 357.838 93.208C359.806 94.766 362.758 95.545 366.694 95.545ZM496.052 14.98H517.331V106H500.726V37.4275L473.051 93.0235H457.86L430.185 38.9035V106H413.58V14.98H434.859L465.732 76.357L496.052 14.98ZM564.329 107.23C557.113 107.23 550.84 105.918 545.51 103.294C540.18 100.67 536.06 96.7545 533.149 91.5475C530.238 86.3405 528.782 79.9855 528.782 72.4825C528.782 64.9795 530.197 58.645 533.026 53.479C535.896 48.313 539.975 44.418 545.264 41.794C550.594 39.17 556.949 37.858 564.329 37.858C571.75 37.858 578.105 39.17 583.394 41.794C588.724 44.377 592.804 48.2515 595.633 53.4175C598.462 58.5425 599.876 64.8975 599.876 72.4825C599.876 79.9035 598.4 86.2175 595.448 91.4245C592.537 96.6315 588.396 100.567 583.025 103.232C577.695 105.898 571.463 107.23 564.329 107.23ZM564.329 93.823C576.506 93.823 582.595 86.73 582.595 72.544C582.595 65.164 581.037 59.793 577.921 56.431C574.805 53.028 570.274 51.3265 564.329 51.3265C558.425 51.3265 553.895 53.0075 550.738 56.3695C547.622 59.7315 546.064 65.082 546.064 72.421C546.064 86.689 552.152 93.823 564.329 93.823ZM610.252 38.9035H624.52L625.627 45.9145H626.488C629.522 43.3315 633.027 41.343 637.004 39.949C641.022 38.555 645.266 37.858 649.735 37.858C657.894 37.858 664.31 40.154 668.984 44.746C673.658 49.297 675.995 56.39 675.995 66.025V106H658.652V66.8245C658.652 61.6995 657.504 58.03 655.208 55.816C652.953 53.602 649.591 52.495 645.122 52.495C641.924 52.495 638.747 53.0895 635.59 54.2785C632.474 55.4675 629.809 57.2305 627.595 59.5675V106H610.252V38.9035ZM725.338 93.2695C727.634 93.2695 730.484 92.9415 733.887 92.2855V105.754C729.5 106.738 725.092 107.23 720.664 107.23C712.013 107.23 705.433 105.16 700.923 101.018C696.454 96.8775 694.219 90.625 694.219 82.261V52.6795H681.427V38.9035H694.219L697.294 14.98H711.562V38.9035H733.21V52.6795H711.562V79.0015C711.562 84.1675 712.669 87.837 714.883 90.01C717.097 92.183 720.582 93.2695 725.338 93.2695ZM765.923 37.858C773.59 37.858 779.781 38.7395 784.496 40.5025C789.252 42.2655 792.778 45.197 795.074 49.297C797.411 53.397 798.58 58.9935 798.58 66.0865V106H784.127L782.959 99.235H782.098C779.638 101.777 776.563 103.745 772.873 105.139C769.183 106.492 765.226 107.169 761.003 107.169C755.878 107.169 751.512 106.369 747.904 104.77C744.337 103.171 741.631 100.936 739.786 98.0665C737.941 95.1965 737.018 91.855 737.018 88.042C737.018 81.892 739.376 77.136 744.091 73.774C748.806 70.371 756.268 68.3005 766.477 67.5625L781.606 66.148V64.795C781.606 61.146 780.97 58.317 779.699 56.308C778.428 54.258 776.46 52.8025 773.795 51.9415C771.171 51.0805 767.625 50.65 763.156 50.65C760.04 50.65 756.637 50.9165 752.947 51.4495C749.298 51.9415 745.833 52.7 742.553 53.725V41.1175C745.997 40.0515 749.79 39.252 753.931 38.719C758.113 38.145 762.11 37.858 765.923 37.858ZM766.108 95.545C768.937 95.545 771.684 95.0735 774.349 94.1305C777.014 93.1875 779.433 91.773 781.606 89.887V75.9265L767.891 77.1565C763.012 77.6485 759.527 78.6735 757.436 80.2315C755.345 81.7485 754.3 83.901 754.3 86.689C754.3 89.477 755.284 91.65 757.252 93.208C759.22 94.766 762.172 95.545 766.108 95.545ZM811.703 38.9035H825.971L827.078 45.9145H827.939C830.973 43.3315 834.478 41.343 838.455 39.949C842.473 38.555 846.717 37.858 851.186 37.858C859.345 37.858 865.761 40.154 870.435 44.746C875.109 49.297 877.446 56.39 877.446 66.025V106H860.103V66.8245C860.103 61.6995 858.955 58.03 856.659 55.816C854.404 53.602 851.042 52.495 846.573 52.495C843.375 52.495 840.198 53.0895 837.041 54.2785C833.925 55.4675 831.26 57.2305 829.046 59.5675V106H811.703V38.9035ZM915.719 37.858C923.386 37.858 929.577 38.7395 934.292 40.5025C939.048 42.2655 942.574 45.197 944.87 49.297C947.207 53.397 948.376 58.9935 948.376 66.0865V106H933.923L932.755 99.235H931.894C929.434 101.777 926.359 103.745 922.669 105.139C918.979 106.492 915.022 107.169 910.799 107.169C905.674 107.169 901.308 106.369 897.7 104.77C894.133 103.171 891.427 100.936 889.582 98.0665C887.737 95.1965 886.814 91.855 886.814 88.042C886.814 81.892 889.172 77.136 893.887 73.774C898.602 70.371 906.064 68.3005 916.273 67.5625L931.402 66.148V64.795C931.402 61.146 930.766 58.317 929.495 56.308C928.224 54.258 926.256 52.8025 923.591 51.9415C920.967 51.0805 917.421 50.65 912.952 50.65C909.836 50.65 906.433 50.9165 902.743 51.4495C899.094 51.9415 895.629 52.7 892.349 53.725V41.1175C895.793 40.0515 899.586 39.252 903.727 38.719C907.909 38.145 911.906 37.858 915.719 37.858ZM915.904 95.545C918.733 95.545 921.48 95.0735 924.145 94.1305C926.81 93.1875 929.229 91.773 931.402 89.887V75.9265L917.687 77.1565C912.808 77.6485 909.323 78.6735 907.232 80.2315C905.141 81.7485 904.096 83.901 904.096 86.689C904.096 89.477 905.08 91.65 907.048 93.208C909.016 94.766 911.968 95.545 915.904 95.545Z" fill="url(#paint0_linear_1253_51)"/>
<path d="M415.016 174V133.818H419.55V174H415.016ZM458.735 133.818H463.025V174H458.382L434.762 140.524V174H430.472V133.818H435.115L458.735 167.294V133.818ZM483.646 174V137.728H469.474V133.818H502.353V137.728H488.181V174H483.646ZM513.271 170.199H535.452V174H508.791V133.818H535.181V137.619H513.271V151.493H532.466V155.294H513.271V170.199ZM569.659 174L556.708 157.411C555.84 157.448 555.17 157.466 554.699 157.466C553.378 157.466 551.541 157.393 549.188 157.248L548.401 157.194V174H543.921V134.578C545.767 134.198 547.613 133.908 549.459 133.709C551.306 133.492 553.278 133.384 555.378 133.384C560.971 133.384 565.098 134.343 567.758 136.261C570.437 138.18 571.777 141.203 571.777 145.33C571.795 148.461 570.917 150.995 569.143 152.932C567.387 154.868 564.772 156.181 561.297 156.868L574.79 174H569.659ZM548.401 153.529C549.686 153.656 550.763 153.746 551.631 153.8C552.5 153.837 553.559 153.855 554.808 153.855C559.224 153.855 562.437 153.167 564.446 151.791C566.473 150.416 567.487 148.289 567.487 145.411C567.487 143.366 567.071 141.728 566.238 140.497C565.424 139.266 564.157 138.379 562.437 137.836C560.718 137.275 558.464 136.995 555.677 136.995C554.211 136.995 552.935 137.049 551.849 137.157C550.763 137.248 549.613 137.402 548.401 137.619V153.529ZM608.722 174L603.862 161.049H585.726L580.866 174H576.332L591.645 133.818H597.998L613.337 174H608.722ZM587.165 157.248H602.423L594.794 136.967L587.165 157.248ZM636.914 174.516C624.063 174.516 617.638 167.674 617.638 153.99C617.638 147.004 619.348 141.809 622.769 138.406C626.19 135.004 631.059 133.302 637.376 133.302C640.616 133.302 643.756 133.727 646.797 134.578V138.488C643.81 137.637 640.742 137.212 637.593 137.212C632.561 137.212 628.769 138.533 626.217 141.176C623.665 143.8 622.389 148.036 622.389 153.882C622.389 157.954 622.977 161.221 624.154 163.683C625.33 166.145 627.004 167.918 629.176 169.004C631.367 170.072 634.063 170.606 637.267 170.606C638.896 170.606 640.462 170.489 641.964 170.253C643.484 170 645.095 169.584 646.797 169.004V172.914C643.792 173.982 640.498 174.516 636.914 174.516ZM664.067 174V137.728H649.894V133.818H682.773V137.728H668.601V174H664.067ZM689.211 174V133.818H693.745V174H689.211ZM732.659 133.818H737.139L721.935 174H715.365L700.134 133.818H704.939L718.786 170.606L732.659 133.818ZM748.042 170.199H770.224V174H743.562V133.818H769.952V137.619H748.042V151.493H767.237V155.294H748.042V170.199ZM793.989 174V133.818H798.523V174H793.989ZM819.926 174.326C816.432 174.326 812.939 174.109 809.446 173.674V134.578C811.238 134.198 813.12 133.908 815.093 133.709C817.084 133.51 819.002 133.411 820.849 133.411C827.853 133.411 833.139 135.112 836.704 138.515C840.27 141.918 842.053 147.049 842.053 153.909C842.053 160.841 840.216 165.982 836.541 169.33C832.867 172.661 827.328 174.326 819.926 174.326ZM820.821 170.47C826.414 170.47 830.568 169.14 833.283 166.479C836.016 163.819 837.383 159.62 837.383 153.882C837.383 148.18 836.025 143.981 833.31 141.284C830.595 138.587 826.487 137.239 820.984 137.239C818.957 137.239 816.622 137.447 813.98 137.863V170.063C815.971 170.335 818.251 170.47 820.821 170.47ZM855.63 170.199H877.812V174H851.151V133.818H877.54V137.619H855.63V151.493H874.825V155.294H855.63V170.199ZM913.618 174L908.759 161.049H890.622L885.763 174H881.229L896.541 133.818H902.894L918.234 174H913.618ZM892.061 157.248H907.32L899.691 136.967L892.061 157.248ZM932.722 174.516C930.948 174.516 929.129 174.371 927.265 174.081C925.419 173.792 923.681 173.366 922.052 172.805V168.923C923.808 169.52 925.609 169.964 927.455 170.253C929.301 170.543 931.066 170.688 932.749 170.688C939.736 170.688 943.229 168.226 943.229 163.303C943.229 161.945 942.939 160.823 942.36 159.936C941.799 159.031 940.903 158.28 939.672 157.683C938.441 157.067 936.767 156.524 934.65 156.054L932.315 155.538C928.586 154.705 925.826 153.402 924.034 151.628C922.26 149.836 921.373 147.483 921.373 144.569C921.373 142.234 921.934 140.225 923.056 138.542C924.179 136.859 925.853 135.565 928.079 134.66C930.324 133.755 933.093 133.302 936.387 133.302C939.808 133.302 943.003 133.746 945.971 134.632V138.515C942.948 137.592 939.79 137.13 936.496 137.13C932.93 137.13 930.278 137.755 928.541 139.004C926.803 140.234 925.934 142.008 925.934 144.325C925.934 145.664 926.188 146.778 926.695 147.664C927.201 148.551 928.025 149.303 929.165 149.918C930.306 150.533 931.853 151.058 933.808 151.493L936.143 152.036C940.197 152.923 943.147 154.244 944.994 156C946.858 157.755 947.79 160.099 947.79 163.031C947.79 165.457 947.202 167.529 946.025 169.249C944.849 170.968 943.129 172.28 940.867 173.185C938.622 174.072 935.907 174.516 932.722 174.516Z" fill="#1B91F2"/>
<defs>
<linearGradient id="paint0_linear_1253_51" x1="205.009" y1="56.5" x2="957.009" y2="56.5" gradientUnits="userSpaceOnUse">
<stop stop-color="#2A3A8F"/>
<stop offset="0.831731" stop-color="#2198F9"/>
</linearGradient>
</defs>
</svg>
