<svg width="957" height="176" viewBox="0 0 957 176" fill="none" xmlns="http://www.w3.org/2000/svg">
<path d="M0.467773 87.5324H37.4678C41.3338 87.5324 44.4678 90.6664 44.4678 94.5324V131.532H7.46777C3.60178 131.532 0.467773 128.398 0.467773 124.532V87.5324Z" fill="#D12186"/>
<path d="M88.501 0.00518799C136.715 0.456715 175.66 39.68 175.66 88.0003C175.66 135.555 137.939 174.299 90.7852 175.945L90.7656 176H51.6592C47.1595 176 44.6592 172.5 44.6592 169V131.533H87.6602V131.532C111.724 131.405 131.191 111.859 131.191 87.7659C131.191 63.673 111.723 44.1275 87.6602 44.0013V44.0003H0V7.00031C4.73475e-06 3.00031 3.5 0.000305176 7 0.000305176H88.5L88.501 0.00518799Z" fill="white"/>
<path d="M272.223 106.738C262.547 106.738 253.363 106.185 244.671 105.078V17.3173C249.14 16.2923 254.204 15.5133 259.862 14.9803C265.561 14.4063 271.014 14.1193 276.221 14.1193C312.465 14.1193 330.587 29.5763 330.587 60.4903C330.587 71.1913 328.434 79.9448 324.129 86.7508C319.865 93.5568 313.428 98.5998 304.818 101.88C296.249 105.119 285.384 106.738 272.223 106.738ZM276.59 92.5933C288.849 92.5933 297.889 90.0103 303.711 84.8443C309.533 79.6373 312.444 71.4783 312.444 60.3673C312.444 49.3793 309.492 41.2818 303.588 36.0748C297.725 30.8268 288.787 28.2028 276.774 28.2028C272.346 28.2028 267.549 28.6333 262.383 29.4943V91.8553C266.36 92.3473 271.096 92.5933 276.59 92.5933ZM366.501 37.8583C374.168 37.8583 380.359 38.7398 385.074 40.5028C389.83 42.2658 393.356 45.1973 395.652 49.2973C397.989 53.3973 399.158 58.9938 399.158 66.0868V106H384.705L383.537 99.2353H382.676C380.216 101.777 377.141 103.745 373.451 105.139C369.761 106.492 365.804 107.169 361.581 107.169C356.456 107.169 352.09 106.369 348.482 104.77C344.915 103.171 342.209 100.937 340.364 98.0668C338.519 95.1968 337.596 91.8553 337.596 88.0423C337.596 81.8923 339.954 77.1363 344.669 73.7743C349.384 70.3713 356.846 68.3008 367.055 67.5628L382.184 66.1483V64.7953C382.184 61.1463 381.548 58.3173 380.277 56.3083C379.006 54.2583 377.038 52.8028 374.373 51.9418C371.749 51.0808 368.203 50.6503 363.734 50.6503C360.618 50.6503 357.215 50.9168 353.525 51.4498C349.876 51.9418 346.411 52.7003 343.131 53.7253V41.1178C346.575 40.0518 350.368 39.2523 354.509 38.7193C358.691 38.1453 362.688 37.8583 366.501 37.8583ZM366.686 95.5453C369.515 95.5453 372.262 95.0738 374.927 94.1308C377.592 93.1878 380.011 91.7733 382.184 89.8873V75.9268L368.469 77.1568C363.59 77.6488 360.105 78.6738 358.014 80.2318C355.923 81.7488 354.878 83.9013 354.878 86.6893C354.878 89.4773 355.862 91.6503 357.83 93.2083C359.798 94.7663 362.75 95.5453 366.686 95.5453ZM496.043 14.9803H517.322V106H500.717V37.4278L473.042 93.0238H457.852L430.177 38.9038V106H413.572V14.9803H434.851L465.724 76.3573L496.043 14.9803ZM564.321 107.23C557.105 107.23 550.832 105.918 545.502 103.294C540.172 100.67 536.051 96.7548 533.14 91.5478C530.229 86.3408 528.774 79.9858 528.774 72.4828C528.774 64.9798 530.188 58.6453 533.017 53.4793C535.887 48.3133 539.967 44.4183 545.256 41.7943C550.586 39.1703 556.941 37.8583 564.321 37.8583C571.742 37.8583 578.097 39.1703 583.386 41.7943C588.716 44.3773 592.795 48.2518 595.624 53.4178C598.453 58.5428 599.868 64.8978 599.868 72.4828C599.868 79.9038 598.392 86.2178 595.44 91.4248C592.529 96.6318 588.388 100.568 583.017 103.233C577.687 105.898 571.455 107.23 564.321 107.23ZM564.321 93.8233C576.498 93.8233 582.586 86.7303 582.586 72.5443C582.586 65.1643 581.028 59.7933 577.912 56.4313C574.796 53.0283 570.266 51.3268 564.321 51.3268C558.417 51.3268 553.886 53.0078 550.729 56.3698C547.613 59.7318 546.055 65.0823 546.055 72.4213C546.055 86.6893 552.144 93.8233 564.321 93.8233ZM610.243 38.9038H624.511L625.618 45.9148H626.479C629.513 43.3318 633.018 41.3433 636.995 39.9493C641.013 38.5553 645.257 37.8583 649.726 37.8583C657.885 37.8583 664.301 40.1543 668.975 44.7463C673.649 49.2973 675.986 56.3903 675.986 66.0253V106H658.643V66.8248C658.643 61.6998 657.495 58.0303 655.199 55.8163C652.944 53.6023 649.582 52.4953 645.113 52.4953C641.915 52.4953 638.738 53.0898 635.581 54.2788C632.465 55.4678 629.8 57.2308 627.586 59.5678V106H610.243V38.9038ZM725.329 93.2698C727.625 93.2698 730.475 92.9418 733.878 92.2858V105.754C729.491 106.738 725.083 107.23 720.655 107.23C712.004 107.23 705.424 105.16 700.914 101.019C696.445 96.8778 694.21 90.6253 694.21 82.2613V52.6798H681.418V38.9038H694.21L697.285 14.9803H711.553V38.9038H733.201V52.6798H711.553V79.0018C711.553 84.1678 712.66 87.8373 714.874 90.0103C717.088 92.1833 720.573 93.2698 725.329 93.2698ZM765.915 37.8583C773.582 37.8583 779.773 38.7398 784.488 40.5028C789.244 42.2658 792.77 45.1973 795.066 49.2973C797.403 53.3973 798.571 58.9938 798.571 66.0868V106H784.119L782.95 99.2353H782.089C779.629 101.777 776.554 103.745 772.864 105.139C769.174 106.492 765.218 107.169 760.995 107.169C755.87 107.169 751.503 106.369 747.895 104.77C744.328 103.171 741.622 100.937 739.777 98.0668C737.932 95.1968 737.01 91.8553 737.01 88.0423C737.01 81.8923 739.367 77.1363 744.082 73.7743C748.797 70.3713 756.259 68.3008 766.468 67.5628L781.597 66.1483V64.7953C781.597 61.1463 780.962 58.3173 779.691 56.3083C778.42 54.2583 776.452 52.8028 773.787 51.9418C771.163 51.0808 767.616 50.6503 763.147 50.6503C760.031 50.6503 756.628 50.9168 752.938 51.4498C749.289 51.9418 745.825 52.7003 742.545 53.7253V41.1178C745.989 40.0518 749.781 39.2523 753.922 38.7193C758.104 38.1453 762.102 37.8583 765.915 37.8583ZM766.099 95.5453C768.928 95.5453 771.675 95.0738 774.34 94.1308C777.005 93.1878 779.424 91.7733 781.597 89.8873V75.9268L767.883 77.1568C763.004 77.6488 759.519 78.6738 757.428 80.2318C755.337 81.7488 754.291 83.9013 754.291 86.6893C754.291 89.4773 755.275 91.6503 757.243 93.2083C759.211 94.7663 762.163 95.5453 766.099 95.5453ZM811.694 38.9038H825.962L827.069 45.9148H827.93C830.964 43.3318 834.469 41.3433 838.446 39.9493C842.464 38.5553 846.708 37.8583 851.177 37.8583C859.336 37.8583 865.752 40.1543 870.426 44.7463C875.1 49.2973 877.437 56.3903 877.437 66.0253V106H860.094V66.8248C860.094 61.6998 858.946 58.0303 856.65 55.8163C854.395 53.6023 851.033 52.4953 846.564 52.4953C843.366 52.4953 840.189 53.0898 837.032 54.2788C833.916 55.4678 831.251 57.2308 829.037 59.5678V106H811.694V38.9038ZM915.71 37.8583C923.377 37.8583 929.568 38.7398 934.283 40.5028C939.039 42.2658 942.565 45.1973 944.861 49.2973C947.198 53.3973 948.367 58.9938 948.367 66.0868V106H933.914L932.746 99.2353H931.885C929.425 101.777 926.35 103.745 922.66 105.139C918.97 106.492 915.013 107.169 910.79 107.169C905.665 107.169 901.299 106.369 897.691 104.77C894.124 103.171 891.418 100.937 889.573 98.0668C887.728 95.1968 886.805 91.8553 886.805 88.0423C886.805 81.8923 889.163 77.1363 893.878 73.7743C898.593 70.3713 906.055 68.3008 916.264 67.5628L931.393 66.1483V64.7953C931.393 61.1463 930.757 58.3173 929.486 56.3083C928.215 54.2583 926.247 52.8028 923.582 51.9418C920.958 51.0808 917.412 50.6503 912.943 50.6503C909.827 50.6503 906.424 50.9168 902.734 51.4498C899.085 51.9418 895.62 52.7003 892.34 53.7253V41.1178C895.784 40.0518 899.577 39.2523 903.718 38.7193C907.9 38.1453 911.897 37.8583 915.71 37.8583ZM915.895 95.5453C918.724 95.5453 921.471 95.0738 924.136 94.1308C926.801 93.1878 929.22 91.7733 931.393 89.8873V75.9268L917.678 77.1568C912.799 77.6488 909.314 78.6738 907.223 80.2318C905.132 81.7488 904.087 83.9013 904.087 86.6893C904.087 89.4773 905.071 91.6503 907.039 93.2083C909.007 94.7663 911.959 95.5453 915.895 95.5453Z" fill="url(#paint0_linear_1260_63)"/>
<path d="M415.007 174V133.818H419.541V174H415.007ZM458.726 133.818H463.016V174H458.373L434.753 140.524V174H430.463V133.818H435.106L458.726 167.294V133.818ZM483.638 174V137.728H469.465V133.818H502.344V137.728H488.172V174H483.638ZM513.262 170.199H535.444V174H508.782V133.818H535.172V137.619H513.262V151.493H532.457V155.294H513.262V170.199ZM569.65 174L556.7 157.412C555.831 157.448 555.161 157.466 554.691 157.466C553.369 157.466 551.532 157.394 549.179 157.249L548.392 157.194V174H543.912V134.579C545.758 134.198 547.604 133.909 549.451 133.71C551.297 133.493 553.27 133.384 555.369 133.384C560.962 133.384 565.089 134.343 567.75 136.262C570.428 138.18 571.768 141.203 571.768 145.33C571.786 148.461 570.908 150.995 569.134 152.932C567.379 154.869 564.763 156.181 561.288 156.869L574.782 174H569.65ZM548.392 153.529C549.677 153.656 550.754 153.746 551.623 153.801C552.491 153.837 553.55 153.855 554.799 153.855C559.216 153.855 562.428 153.167 564.437 151.792C566.465 150.416 567.478 148.289 567.478 145.411C567.478 143.366 567.062 141.728 566.229 140.497C565.415 139.266 564.148 138.38 562.428 137.837C560.709 137.275 558.455 136.995 555.668 136.995C554.202 136.995 552.926 137.049 551.84 137.158C550.754 137.248 549.604 137.402 548.392 137.619V153.529ZM608.713 174L603.853 161.05H585.717L580.857 174H576.323L591.636 133.818H597.989L613.329 174H608.713ZM587.156 157.249H602.414L594.785 136.968L587.156 157.249ZM636.905 174.516C624.054 174.516 617.629 167.674 617.629 153.991C617.629 147.004 619.339 141.809 622.76 138.407C626.181 135.004 631.05 133.302 637.367 133.302C640.607 133.302 643.747 133.728 646.788 134.579V138.488C643.801 137.637 640.734 137.212 637.584 137.212C632.552 137.212 628.76 138.533 626.208 141.176C623.656 143.8 622.38 148.036 622.38 153.882C622.38 157.955 622.968 161.222 624.145 163.683C625.321 166.145 626.996 167.919 629.168 169.005C631.358 170.073 634.055 170.607 637.258 170.607C638.887 170.607 640.453 170.489 641.955 170.254C643.476 170 645.087 169.584 646.788 169.005V172.914C643.783 173.982 640.489 174.516 636.905 174.516ZM664.058 174V137.728H649.886V133.818H682.764V137.728H668.592V174H664.058ZM689.203 174V133.818H693.737V174H689.203ZM732.651 133.818H737.13L721.926 174H715.356L700.125 133.818H704.931L718.777 170.607L732.651 133.818ZM748.033 170.199H770.215V174H743.554V133.818H769.943V137.619H748.033V151.493H767.228V155.294H748.033V170.199ZM793.98 174V133.818H798.514V174H793.98ZM819.917 174.326C816.423 174.326 812.93 174.109 809.437 173.675V134.579C811.229 134.198 813.111 133.909 815.084 133.71C817.075 133.511 818.994 133.411 820.84 133.411C827.845 133.411 833.13 135.112 836.695 138.515C840.261 141.918 842.044 147.049 842.044 153.909C842.044 160.842 840.207 165.982 836.533 169.331C832.858 172.661 827.32 174.326 819.917 174.326ZM820.813 170.471C826.406 170.471 830.56 169.14 833.275 166.48C836.008 163.819 837.374 159.62 837.374 153.882C837.374 148.181 836.017 143.981 833.302 141.285C830.587 138.588 826.478 137.239 820.976 137.239C818.948 137.239 816.614 137.447 813.971 137.864V170.064C815.962 170.335 818.243 170.471 820.813 170.471ZM855.622 170.199H877.803V174H851.142V133.818H877.532V137.619H855.622V151.493H874.817V155.294H855.622V170.199ZM913.61 174L908.75 161.05H890.614L885.754 174H881.22L896.532 133.818H902.885L918.225 174H913.61ZM892.053 157.249H907.311L899.682 136.968L892.053 157.249ZM932.713 174.516C930.939 174.516 929.12 174.371 927.256 174.082C925.41 173.792 923.672 173.367 922.043 172.806V168.923C923.799 169.521 925.6 169.964 927.446 170.254C929.292 170.543 931.057 170.688 932.74 170.688C939.727 170.688 943.22 168.226 943.22 163.303C943.22 161.946 942.931 160.824 942.351 159.937C941.79 159.032 940.894 158.28 939.663 157.683C938.433 157.068 936.758 156.525 934.641 156.054L932.306 155.538C928.577 154.706 925.817 153.403 924.025 151.629C922.251 149.837 921.364 147.484 921.364 144.57C921.364 142.235 921.925 140.226 923.048 138.542C924.17 136.859 925.844 135.565 928.07 134.66C930.315 133.755 933.084 133.302 936.378 133.302C939.799 133.302 942.994 133.746 945.962 134.633V138.515C942.94 137.592 939.781 137.131 936.487 137.131C932.921 137.131 930.27 137.755 928.532 139.004C926.794 140.235 925.926 142.009 925.926 144.325C925.926 145.665 926.179 146.778 926.686 147.665C927.193 148.552 928.016 149.303 929.156 149.918C930.297 150.534 931.844 151.059 933.799 151.493L936.134 152.036C940.188 152.923 943.139 154.244 944.985 156C946.849 157.756 947.781 160.1 947.781 163.032C947.781 165.457 947.193 167.53 946.017 169.249C944.84 170.969 943.121 172.281 940.858 173.186C938.614 174.073 935.899 174.516 932.713 174.516Z" fill="white"/>
<defs>
<linearGradient id="paint0_linear_1260_63" x1="205" y1="56.5003" x2="957" y2="56.5003" gradientUnits="userSpaceOnUse">
<stop offset="0.572115" stop-color="white"/>
<stop offset="1" stop-color="white" stop-opacity="0.85"/>
</linearGradient>
</defs>
</svg>
